<?xml version="1.0" encoding="UTF-8" standalone="no"?>
<svg
   width="900"
   height="600"
   version="1.1"
   id="svg12"
   xmlns:inkscape="http://www.inkscape.org/namespaces/inkscape"
   xmlns:sodipodi="http://sodipodi.sourceforge.net/DTD/sodipodi-0.dtd"
   xmlns="http://www.w3.org/2000/svg"
   xmlns:svg="http://www.w3.org/2000/svg">
  <defs
     id="defs16" />
  <sodipodi:namedview
     id="namedview14"
     pagecolor="#ffffff"
     bordercolor="#000000"
     borderopacity="0.25"
     inkscape:showpageshadow="2"
     inkscape:pageopacity="0.0"
     inkscape:pagecheckerboard="0"
     inkscape:deskcolor="#d1d1d1"
     showgrid="false" />
  <rect
     width="900"
     height="600"
     fill="#DE2910"
     id="rect2" />
  <polygon
     points="135.0,60.0 155.11432422293635,122.31500779705503 220.59508646656383,122.18847050625473 167.54566025344633,160.57472604324914 187.90067270632258,222.81152949374527 135.0,184.22053231939162 82.09932729367742,222.81152949374527 102.45433974655367,160.57472604324914 49.40491353343617,122.18847050625475 114.88567577706365,122.31500779705503"
     fill="#FFFF00"
     id="polygon4" />
  <polygon
     points="75.0,120.00000000000003 81.70477474097878,140.77166926568503 103.53169548885461,140.7294901687516 85.84855341781544,153.52490868108308 92.6335575687742,174.27050983124846 75.0,161.4068441064639 57.366442431225806,174.27050983124846 64.15144658218456,153.52490868108308 46.46830451114539,140.72949016875162 68.29522525902122,140.77166926568503"
     fill="#FFFF00"
     id="polygon6" />
  <polygon
     points="195.0,119.99999999999991 201.7047747409788,140.77166926568492 223.5316954888546,140.72949016875148 205.84855341781545,153.52490868108296 212.6335575687742,174.27050983124835 195.0,161.40684410646378 177.3664424312258,174.27050983124835 184.15144658218455,153.52490868108296 166.4683045111454,140.7294901687515 188.2952252590212,140.77166926568492"
     fill="#FFFF00"
     id="polygon8" />
  <polygon
     points="75.0,119.99999999999989 81.70477474097878,140.7716692656849 103.53169548885461,140.72949016875145 85.84855341781544,153.52490868108293 92.6335575687742,174.27050983124832 75.0,161.40684410646378 57.366442431225806,174.27050983124832 64.15144658218456,153.52490868108293 46.46830451114539,140.72949016875145 68.29522525902122,140.7716692656849"
     fill="#FFFF00"
     id="polygon10" />
</svg>
